<svg width="220" height="24" viewBox="0 0 220 24" fill="none" xmlns="http://www.w3.org/2000/svg">
<g clip-path="url(#clip0_3_2)">
<path d="M218.44 13.45H207.3V19.29H219.99V23.37H202.62V0.659988H219.43V4.67999H207.3V9.49999H218.44V13.44V13.45Z" fill="#3377FF"/>
<path d="M181.79 0.659988H186.58V19.28H197.93V23.36H181.78V0.659988H181.79Z" fill="#3377FF"/>
<path d="M170.43 18.7H161.98L160.39 23.37H155.38L163.57 0.659988H168.98L177.1 23.37H171.9L170.42 18.7H170.43ZM169.09 14.79L166.23 5.85999L163.27 14.79H169.09Z" fill="#3377FF"/>
<path d="M149.47 21.67C147.76 23.22 145.57 24 142.91 24C139.61 24 137.02 22.95 135.13 20.86C133.24 18.75 132.3 15.87 132.3 12.2C132.3 8.24 133.37 5.18 135.52 3.03C137.39 1.16 139.76 0.229996 142.64 0.229996C146.5 0.229996 149.32 1.48 151.1 3.99C152.09 5.4 152.61 6.81 152.69 8.23H147.9C147.59 7.14 147.19 6.32 146.7 5.77C145.83 4.78 144.54 4.29 142.83 4.29C141.12 4.29 139.71 4.99 138.71 6.39C137.7 7.78 137.2 9.74 137.2 12.29C137.2 14.84 137.73 16.75 138.79 18.02C139.86 19.28 141.21 19.91 142.85 19.91C144.49 19.91 145.81 19.37 146.69 18.28C147.18 17.69 147.58 16.82 147.9 15.65H152.64C152.23 18.12 151.17 20.14 149.47 21.69V21.67Z" fill="#3377FF"/>
<path d="M119.22 20.09C120.35 20.09 121.27 19.97 121.97 19.72C123.31 19.25 123.98 18.37 123.98 17.09C123.98 16.34 123.65 15.76 122.98 15.35C122.32 14.95 121.27 14.6 119.85 14.29L117.42 13.75C115.04 13.22 113.39 12.64 112.47 12.01C110.92 10.96 110.15 9.31999 110.15 7.09999C110.15 5.06999 110.9 3.37999 112.39 2.02999C113.88 0.679994 116.08 0.00999451 118.97 0.00999451C121.39 0.00999451 123.44 0.649994 125.15 1.91999C126.86 3.17999 127.76 5.01999 127.84 7.42999H123.24C123.16 6.05999 122.56 5.08999 121.44 4.51999C120.69 4.13999 119.77 3.94999 118.66 3.94999C117.43 3.94999 116.44 4.19999 115.7 4.68999C114.96 5.17999 114.6 5.86999 114.6 6.74999C114.6 7.55999 114.96 8.16999 115.69 8.56999C116.16 8.83999 117.15 9.14999 118.68 9.50999L122.63 10.45C124.36 10.86 125.67 11.41 126.55 12.1C127.92 13.17 128.6 14.71 128.6 16.74C128.6 18.77 127.8 20.54 126.19 21.92C124.59 23.29 122.33 23.97 119.41 23.97C116.49 23.97 114.07 23.3 112.36 21.95C110.65 20.59 109.79 18.74 109.79 16.37H114.36C114.5 17.41 114.79 18.18 115.22 18.7C116 19.63 117.33 20.1 119.22 20.1V20.09Z" fill="#3377FF"/>
<path d="M88.87 23.37H78.99V0.659988H88.87C90.29 0.679988 91.47 0.839988 92.42 1.14999C94.03 1.66999 95.33 2.62999 96.32 4.02999C97.12 5.15999 97.66 6.37999 97.95 7.69999C98.24 9.00999 98.39 10.27 98.39 11.46C98.39 14.48 97.78 17.04 96.55 19.13C94.89 21.95 92.33 23.37 88.87 23.37ZM92.43 6.45999C91.69 5.22999 90.24 4.60999 88.06 4.60999H83.64V19.43H88.06C90.32 19.43 91.9 18.33 92.79 16.12C93.28 14.91 93.52 13.47 93.52 11.79C93.52 9.47999 93.16 7.69999 92.43 6.45999Z" fill="#3377FF"/>
<path d="M58.16 0.659988H62.95V19.28H74.3V23.36H58.15V0.659988H58.16Z" fill="#3377FF"/>
<path d="M47.72 0.659988H52.48V23.37H47.72V0.659988Z" fill="#3377FF"/>
<path d="M37.17 14.62V0.659988H42.04V14.62C42.04 17.03 41.66 18.91 40.9 20.26C39.49 22.72 36.8 23.96 32.83 23.96C28.86 23.96 26.16 22.73 24.74 20.26C23.98 18.91 23.6 17.04 23.6 14.62V0.659988H28.47V14.62C28.47 16.18 28.66 17.32 29.03 18.04C29.61 19.31 30.88 19.95 32.82 19.95C34.76 19.95 36.02 19.31 36.6 18.04C36.97 17.32 37.16 16.18 37.16 14.62H37.17Z" fill="#3377FF"/>
<path d="M10.39 23.37H0V0.659988H11.14C13.95 0.699988 15.94 1.50999 17.11 3.07999C17.82 4.04999 18.17 5.19999 18.17 6.54999C18.17 7.89999 17.82 9.04999 17.11 9.88999C16.72 10.36 16.14 10.79 15.37 11.18C16.54 11.6 17.42 12.27 18.01 13.18C18.61 14.09 18.91 15.2 18.91 16.51C18.91 17.82 18.57 19.06 17.88 20.13C17.44 20.84 16.9 21.43 16.25 21.92C15.51 22.47 14.64 22.85 13.64 23.06C12.64 23.27 11.56 23.37 10.39 23.37ZM10.28 13.37H4.57V19.42H10.2C11.21 19.42 11.99 19.29 12.55 19.02C13.57 18.53 14.07 17.58 14.07 16.19C14.07 15.01 13.58 14.2 12.59 13.76C12.04 13.51 11.27 13.39 10.27 13.37H10.28ZM12.66 9.03999C13.28 8.66999 13.59 8.00999 13.59 7.04999C13.59 5.98999 13.18 5.28999 12.35 4.95999C11.63 4.71999 10.72 4.60999 9.61 4.60999H4.57V9.61999H10.2C11.21 9.61999 12.03 9.42999 12.66 9.04999V9.03999Z" fill="#3377FF"/>
</g>
<defs>
<clipPath id="clip0_3_2">
<rect width="220" height="24" fill="white"/>
</clipPath>
</defs>
</svg>
