<?xml version="1.0" encoding="utf-8"?>
<!-- Generator: Adobe Illustrator 28.0.0, SVG Export Plug-In . SVG Version: 6.00 Build 0)  -->
<svg version="1.1" id="レイヤー_1" xmlns="http://www.w3.org/2000/svg" xmlns:xlink="http://www.w3.org/1999/xlink" x="0px"
	 y="0px" viewBox="0 0 220 24" style="enable-background:new 0 0 220 24;" xml:space="preserve">
<style type="text/css">
	.st0{clip-path:url(#SVGID_00000032626945743549747960000009725621523213980592_);}
	.st1{fill:#FFFFFF;}
</style>
<g>
	<defs>
		<rect id="SVGID_1_" y="0" width="220" height="24"/>
	</defs>
	<clipPath id="SVGID_00000084518925853001297410000011109473803819773057_">
		<use xlink:href="#SVGID_1_"  style="overflow:visible;"/>
	</clipPath>
	<g style="clip-path:url(#SVGID_00000084518925853001297410000011109473803819773057_);">
		<path class="st1" d="M218.4,13.4h-11.1v5.8H220v4.1h-17.4V0.7h16.8v4h-12.1v4.8h11.1V13.4L218.4,13.4z"/>
		<path class="st1" d="M181.8,0.7h4.8v18.6h11.3v4.1h-16.1L181.8,0.7L181.8,0.7z"/>
		<path class="st1" d="M170.4,18.7H162l-1.6,4.7h-5l8.2-22.7h5.4l8.1,22.7h-5.2L170.4,18.7L170.4,18.7z M169.1,14.8l-2.9-8.9l-3,8.9
			H169.1z"/>
		<path class="st1" d="M149.5,21.7c-1.7,1.5-3.9,2.3-6.6,2.3c-3.3,0-5.9-1-7.8-3.1c-1.9-2.1-2.8-5-2.8-8.7c0-4,1.1-7,3.2-9.2
			c1.9-1.9,4.2-2.8,7.1-2.8c3.9,0,6.7,1.3,8.5,3.8c1,1.4,1.5,2.8,1.6,4.2h-4.8c-0.3-1.1-0.7-1.9-1.2-2.5c-0.9-1-2.2-1.5-3.9-1.5
			c-1.7,0-3.1,0.7-4.1,2.1c-1,1.4-1.5,3.3-1.5,5.9s0.5,4.5,1.6,5.7c1.1,1.3,2.4,1.9,4.1,1.9s3-0.5,3.8-1.6c0.5-0.6,0.9-1.5,1.2-2.6
			h4.7C152.2,18.1,151.2,20.1,149.5,21.7L149.5,21.7z"/>
		<path class="st1" d="M119.2,20.1c1.1,0,2-0.1,2.8-0.4c1.3-0.5,2-1.3,2-2.6c0-0.8-0.3-1.3-1-1.7c-0.7-0.4-1.7-0.8-3.1-1.1l-2.4-0.5
			c-2.4-0.5-4-1.1-4.9-1.7c-1.6-1.1-2.3-2.7-2.3-4.9c0-2,0.8-3.7,2.2-5.1c1.5-1.3,3.7-2,6.6-2c2.4,0,4.5,0.6,6.2,1.9
			c1.7,1.3,2.6,3.1,2.7,5.5h-4.6c-0.1-1.4-0.7-2.3-1.8-2.9c-0.8-0.4-1.7-0.6-2.8-0.6c-1.2,0-2.2,0.2-3,0.7c-0.7,0.5-1.1,1.2-1.1,2.1
			c0,0.8,0.4,1.4,1.1,1.8c0.5,0.3,1.5,0.6,3,0.9l3.9,0.9c1.7,0.4,3,1,3.9,1.7c1.4,1.1,2.1,2.6,2.1,4.6s-0.8,3.8-2.4,5.2
			c-1.6,1.4-3.9,2-6.8,2c-2.9,0-5.3-0.7-7.1-2c-1.7-1.4-2.6-3.2-2.6-5.6h4.6c0.1,1,0.4,1.8,0.9,2.3C116,19.6,117.3,20.1,119.2,20.1
			L119.2,20.1z"/>
		<path class="st1" d="M88.9,23.4H79V0.7h9.9c1.4,0,2.6,0.2,3.5,0.5C94,1.7,95.3,2.6,96.3,4c0.8,1.1,1.3,2.3,1.6,3.7
			c0.3,1.3,0.4,2.6,0.4,3.8c0,3-0.6,5.6-1.8,7.7C94.9,22,92.3,23.4,88.9,23.4z M92.4,6.5c-0.7-1.2-2.2-1.8-4.4-1.8h-4.4v14.8h4.4
			c2.3,0,3.8-1.1,4.7-3.3c0.5-1.2,0.7-2.7,0.7-4.3C93.5,9.5,93.2,7.7,92.4,6.5z"/>
		<path class="st1" d="M58.2,0.7H63v18.6h11.4v4.1H58.2L58.2,0.7L58.2,0.7z"/>
		<path class="st1" d="M47.7,0.7h4.8v22.7h-4.8V0.7z"/>
		<path class="st1" d="M37.2,14.6v-14H42v14c0,2.4-0.4,4.3-1.1,5.6c-1.4,2.5-4.1,3.7-8.1,3.7s-6.7-1.2-8.1-3.7
			c-0.8-1.4-1.1-3.2-1.1-5.6v-14h4.9v14c0,1.6,0.2,2.7,0.6,3.4c0.6,1.3,1.8,1.9,3.8,1.9s3.2-0.6,3.8-1.9
			C37,17.3,37.2,16.2,37.2,14.6L37.2,14.6z"/>
		<path class="st1" d="M10.4,23.4H0V0.7h11.1c2.8,0,4.8,0.9,6,2.4c0.7,1,1.1,2.1,1.1,3.5S17.8,9,17.1,9.9c-0.4,0.5-1,0.9-1.7,1.3
			c1.2,0.4,2.1,1.1,2.6,2c0.6,0.9,0.9,2,0.9,3.3s-0.3,2.5-1,3.6c-0.4,0.7-1,1.3-1.6,1.8c-0.7,0.5-1.6,0.9-2.6,1.1
			C12.6,23.3,11.6,23.4,10.4,23.4z M10.3,13.4H4.6v6.1h5.6c1,0,1.8-0.1,2.4-0.4c1-0.5,1.5-1.4,1.5-2.8c0-1.2-0.5-2-1.5-2.4
			C12,13.5,11.3,13.4,10.3,13.4L10.3,13.4z M12.7,9c0.6-0.4,0.9-1,0.9-2c0-1.1-0.4-1.8-1.2-2.1c-0.7-0.2-1.6-0.3-2.7-0.3h-5v5h5.6
			C11.2,9.6,12,9.4,12.7,9L12.7,9z"/>
	</g>
</g>
</svg>
